
<svg width="127px" height="127px" viewBox="0 0 127 127" version="1.1" xmlns="http://www.w3.org/2000/svg" xmlns:xlink="http://www.w3.org/1999/xlink">
    <g id="Page-1" stroke="none" stroke-width="1" fill="none" fill-rule="evenodd">
        <g id="Group-2" transform="translate(1.000000, 1.000000)" stroke="#979797">
            <circle id="Oval" fill="#F9F7F7" cx="62.5" cy="62.5" r="62.5"></circle>
            <g id="Group" transform="translate(41.000000, 16.000000)" fill="#D8D8D8">
                <path d="M6.00590962,75.2366412 L6,75.2366412 L6.00710643,75.2042373 C6.05139127,74.0581618 6.30169306,72.9509975 6.73108953,71.9030217 L22.5,0 L38.2689093,71.9030163 C38.6983069,72.9509975 38.9486087,74.0581618 38.9928936,75.2042373 L39,75.2366412 L38.9940904,75.2366412 C38.9980219,75.3482401 39,75.4602056 39,75.5725191 C39,82.4360273 31.6126984,88 22.5,88 C13.3873016,88 6,82.4360273 6,75.5725191 C6,75.4602056 6.00197814,75.3482401 6.00590962,75.2366412 Z" id="Combined-Shape"></path>
                <rect id="Rectangle" x="12.5" y="0.5" width="20" height="25" rx="8"></rect>
                <rect id="Rectangle" x="39.5" y="63.5" width="4" height="30" rx="2"></rect>
                <rect id="Rectangle" x="0.5" y="63.5" width="4" height="30" rx="2"></rect>
            </g>
        </g>
    </g>
</svg>