
<svg width="118px" height="117px" viewBox="0 0 118 117" version="1.1" xmlns="http://www.w3.org/2000/svg" xmlns:xlink="http://www.w3.org/1999/xlink">
    <g id="Page-1" stroke="none" stroke-width="1" fill="none" fill-rule="evenodd">
        <g id="Group-2" transform="translate(0.500000, 0.000000)" stroke="#979797">
            <rect id="Rectangle" fill="#F9F7F7" x="0.5" y="0.5" width="116" height="116" rx="8"></rect>
            <g id="Combined-Shape-2" transform="translate(25.000000, 22.000000)" fill="#D8D8D8">
                <path d="M28.5485437,0.5 L24.5970874,0.5 L24.5970874,7.83333333 L24.2669903,7.83333333 L24.2669903,24.1666667 L13.0436893,24.1666667 L13.0436893,46.8333333 L8,46.8333333 C3.85786438,46.8333333 0.5,50.1911977 0.5,54.3333333 L0.5,64 C0.5,68.1421356 3.85786438,71.5 8,71.5 L60,71.5 C64.1421356,71.5 67.5,68.1421356 67.5,64 L67.5,54.3333333 C67.5,50.1911977 64.1421356,46.8333333 60,46.8333333 L56.276699,46.8333333 L56.276699,24.1666667 L46.0436893,24.1666667 L46.0436893,7.83333333 L45.7135922,7.83333333 L45.7135922,0.5 L41.7621359,0.5 L41.7621359,7.83333333 L37.131068,7.83333333 L37.131068,2.83333333 L33.1796117,2.83333333 L33.1796117,7.83333333 L28.5485437,7.83333333 L28.5485437,0.5 Z" id="Combined-Shape" transform="translate(34.000000, 36.000000) rotate(-360.000000) translate(-34.000000, -36.000000) "></path>
            </g>
        </g>
    </g>
</svg>